<?xml version="1.0" standalone="no"?>
<!DOCTYPE svg PUBLIC "-//W3C//DTD SVG 20010904//EN"
 "http://www.w3.org/TR/2001/REC-SVG-20010904/DTD/svg10.dtd">
<svg version="1.0" xmlns="http://www.w3.org/2000/svg"
 width="380.000000pt" height="380.000000pt" viewBox="0 0 380.000000 380.000000"
 preserveAspectRatio="xMidYMid meet">
<metadata>
Created by potrace 1.11, written by Peter Selinger 2001-2013
</metadata>
<g transform="translate(0.000000,380.000000) scale(0.100000,-0.100000)"
fill="#000000" stroke="none">
<path d="M1710 2782 c-46 -5 -53 -32 -52 -205 1 -87 4 -167 7 -177 8 -25 36
-32 138 -35 75 -2 92 -6 110 -23 l20 -21 19 21 c16 19 30 21 116 22 152 2 147
-6 147 209 0 155 -2 178 -18 194 -15 16 -41 18 -240 18 -122 0 -233 -1 -247
-3z"/>
<path d="M1885 2149 c-4 -5 -14 -9 -24 -9 -22 0 -101 -67 -101 -86 0 -8 -5
-14 -11 -14 -5 0 -7 -4 -4 -10 8 -13 93 -12 -800 -12 -774 0 -780 0 -802 -21
-38 -35 -27 -103 18 -115 16 -4 378 -7 803 -6 l775 1 12 -29 c6 -16 26 -40 43
-55 108 -91 268 -65 330 54 l15 30 778 1 c691 0 781 2 808 16 17 9 26 16 21
16 -5 0 -4 6 1 13 15 17 8 47 -16 70 -20 20 -31 21 -806 21 -699 0 -785 2
-790 16 -10 31 -71 90 -110 106 -46 19 -132 27 -140 13z"/>
<path d="M118 1518 c-6 -18 -2 -127 5 -134 3 -4 13 -4 22 -1 11 5 15 23 15 77
0 62 -2 70 -19 70 -10 0 -21 -6 -23 -12z"/>
<path d="M720 1457 c0 -66 2 -73 20 -74 22 -2 22 -1 22 77 0 73 1 70 -22 70
-18 0 -20 -7 -20 -73z"/>
<path d="M1320 1460 c0 -39 4 -71 10 -71 31 -5 34 -1 37 46 5 68 -3 95 -27 95
-18 0 -20 -7 -20 -70z"/>
<path d="M1922 1458 c3 -65 5 -73 23 -73 18 0 20 7 20 70 0 65 -2 70 -23 73
-22 3 -23 2 -20 -70z"/>
<path d="M2510 1460 c0 -56 3 -72 16 -77 24 -9 31 11 30 80 -1 56 -3 62 -23
65 -22 3 -23 0 -23 -68z"/>
<path d="M3114 1517 c-3 -8 -4 -41 -2 -73 3 -51 6 -59 23 -59 18 0 20 7 20 70
0 58 -3 70 -18 73 -9 2 -20 -3 -23 -11z"/>
<path d="M3716 1513 c-3 -10 -5 -41 -5 -70 0 -37 4 -53 15 -57 28 -11 34 4 34
75 0 62 -2 69 -19 69 -11 0 -22 -8 -25 -17z"/>
</g>
</svg>
